Left Bank (2008)

Plot: When Marie, an introverted young athlete, collapses and is forced to take a rest from competitive sport, she decides to move in with her new boyfriend in his flat in Left Bank. Their passionate relationship at first seems to help her, that is until she discovers that the previous tenant of the flat mysteriously disappeared. Marie begins to doubt whether she can really trust her boyfriend. Life in Left Bank, once envisaged as a dream town, starts to become an alienating nightmare. Slowly, she loses grip on reality. 

Cast:
Eline Kuppens ... Marie
Matthias Schoenaerts ... Bob
Sien Eggers ... Bieke
Marilou Mermans ... Jeanne
Frank Vercruyssen ... Gilbert
Robbie Cleiren ... Dokter Verbeke
Ruth Becquart ... Hella
Tinneke Boonen ... Tinneke - loopster 2
Sara De Bosschere ... Veerle
Jamahl Boukriss ... Verkoper
Siska Bouwer ... Katrien
Tom De Wispelaere ... Dirk

Details
Original title: Linkeroever
Genre: Drama | Horror | Mystery | Thriller
Runtime: 102
Country: Belgium
Language: Flemish
Subtitle: English

Directed by
Pieter Van Hees

Writing credits
Christophe Dirickx
Dimitri Karakatsanis
Pieter Van Hees

IMDb: http://www.imdb.com/title/tt0940723/

--------------------------------------------------------------------------------

MediaInfo:

General
Format                                   : AVI
Format/Info                              : Audio Video Interleave
File size                                : 701 MiB
Duration                                 : 1h 42mn
Overall bit rate mode                    : Variable
Overall bit rate                         : 955 Kbps
Writing application                      : VirtualDubMod 1.5.10.2 (build 2540/release)
Writing library                          : VirtualDubMod build 2540/release

Video
ID                                       : 0
Format                                   : MPEG-4 Visual
Format profile                           : Advanced Simple@L5
Format settings, BVOP                    : 2
Format settings, QPel                    : No
Format settings, GMC                     : No warppoints
Format settings, Matrix                  : Default (H.263)
Muxing mode                              : Packed bitstream
Codec ID                                 : XVID
Codec ID/Hint                            : XviD
Duration                                 : 1h 42mn
Bit rate                                 : 845 Kbps
Width                                    : 608 pixels
Height                                   : 256 pixels
Display aspect ratio                     : 2.40:1
Frame rate                               : 23.976 fps
Color space                              : YUV
Chroma subsampling                       : 4:2:0
Bit depth                                : 8 bits
Scan type                                : Progressive
Compression mode                         : Lossy
Bits/(Pixel*Frame)                       : 0.226
Stream size                              : 621 MiB (89%)
Writing library                          : XviD 1.2.1 (UTC 2008-12-04)

Audio
ID                                       : 1
Format                                   : MPEG Audio
Format version                           : Version 1
Format profile                           : Layer 3
Mode                                     : Joint stereo
Mode extension                           : MS Stereo
Codec ID                                 : 55
Codec ID/Hint                            : MP3
Duration                                 : 1h 42mn
Bit rate mode                            : Variable
Bit rate                                 : 96.9 Kbps
Minimum bit rate                         : 32.0 Kbps
Channel(s)                               : 2 channels
Sampling rate                            : 48.0 KHz
Compression mode                         : Lossy
Stream size                              : 71.1 MiB (10%)
Alignment                                : Aligned on interleaves
Interleave, duration                     : 24 ms (0.58 video frame)
Interleave, preload duration             : 190 ms
Writing library                          : LAME3.97b
Encoding settings                        : -m j -V 5 -q 3 -lowpass 16 --vbr-new -b 32
Language                                 : Flemish
Subtitle                                 : English

--------------------------------------------------------------------------------

Screenshots: 
http://i.imgur.com/oIQuU.jpg
 
http://i.imgur.com/QXWPi.jpg
 
http://i.imgur.com/ijJEF.jpg
 
http://i.imgur.com/gx506.jpg
 
http://i.imgur.com/c7XLN.jpg
 
http://i.imgur.com/vdMmP.jpg